<?xml version="1.0" encoding="UTF-8"?>
<svg xmlns="http://www.w3.org/2000/svg" viewBox="0 0 400 480" role="img" aria-labelledby="title desc">
  <title id="title">Familienwappen Bazynski</title>
  <desc id="desc">Stilisiertes Wappen mit Helm, Krone, Eichhörnchen und Ornamenten in warmen Kupfertönen.</desc>
  <defs>
    <linearGradient id="shieldGradient" x1="0" x2="0" y1="0" y2="1">
      <stop offset="0%" stop-color="#f8ddaa"/>
      <stop offset="100%" stop-color="#e7b770"/>
    </linearGradient>
    <linearGradient id="accentGradient" x1="0" x2="0" y1="0" y2="1">
      <stop offset="0%" stop-color="#c25a17"/>
      <stop offset="100%" stop-color="#8b3d12"/>
    </linearGradient>
  </defs>
  <rect width="100%" height="100%" rx="32" fill="#f7ede0"/>
  <g transform="translate(200 120)">
    <path d="M-82 -20 h164 l-18 -76 h-128 z" fill="#a65a1e" stroke="#6c2f11" stroke-width="6" stroke-linejoin="round"/>
    <path d="M-56 -96 h112 l-12 -32 h-88 z" fill="#c86c1c" stroke="#6c2f11" stroke-width="6" stroke-linejoin="round"/>
    <path d="M-98 20 h196 l-10 -36 h-176 z" fill="#7c3710" stroke="#52240c" stroke-width="6" stroke-linejoin="round"/>
    <path d="M-122 46 q-18 80 0 168 16 74 64 118 44 39 58 54 14 -15 58 -54 48 -44 64 -118 18 -88 0 -168 z" fill="url(#shieldGradient)" stroke="#8d4b18" stroke-width="10" stroke-linejoin="round"/>
    <path d="M-84 78 q-10 60 0 124 10 52 44 90 30 32 40 42 10 -10 40 -42 34 -38 44 -90 10 -64 0 -124 z" fill="none" stroke="#e4c287" stroke-width="6" stroke-linecap="round" stroke-linejoin="round" opacity="0.4"/>
  </g>
  <g transform="translate(200 248)">
    <path d="M-30 -46 q34 -24 68 0 -8 22 -8 34 l-52 10 q0 -16 -8 -44z" fill="#c86c1c" stroke="#6c2f11" stroke-width="6" stroke-linejoin="round"/>
    <ellipse cx="-12" cy="-62" rx="12" ry="10" fill="#52240c"/>
    <ellipse cx="12" cy="-62" rx="12" ry="10" fill="#52240c"/>
  </g>
  <g transform="translate(200 280)">
    <path d="M-48 -32 q-20 22 -20 58 0 30 18 52 t46 24 q-12 12 -12 22 0 6 4 12 l-18 10 q-10 6 -2 16 20 24 64 16 30 -6 38 -26 6 -14 -6 -24 l-16 -12 28 -18 q30 -18 30 -52 0 -44 -42 -66 -26 -14 -48 -6 -6 -8 -20 -8 -24 0 -44 14z" fill="#c86c1c" stroke="#6c2f11" stroke-width="6" stroke-linejoin="round"/>
    <circle cx="40" cy="-12" r="12" fill="#6c2f11"/>
    <path d="M-22 50 q40 20 72 -8" fill="none" stroke="#6c2f11" stroke-width="6" stroke-linecap="round"/>
    <path d="M10 86 q0 10 10 16" fill="none" stroke="#6c2f11" stroke-width="6" stroke-linecap="round"/>
  </g>
  <g transform="translate(200 120)">
    <path d="M-150 120 q-40 74 36 130" fill="none" stroke="#8d4b18" stroke-width="12" stroke-linecap="round"/>
    <path d="M150 120 q40 74 -36 130" fill="none" stroke="#8d4b18" stroke-width="12" stroke-linecap="round"/>
    <path d="M-164 220 q36 24 60 68" fill="none" stroke="#c86c1c" stroke-width="16" stroke-linecap="round"/>
    <path d="M164 220 q-36 24 -60 68" fill="none" stroke="#c86c1c" stroke-width="16" stroke-linecap="round"/>
  </g>
  <g transform="translate(200 112)">
    <path d="M-70 -42 h140 l-8 -30 h-124z" fill="url(#accentGradient)" stroke="#52240c" stroke-width="6" stroke-linejoin="round"/>
  </g>
</svg>
